<svg 
 xmlns="http://www.w3.org/2000/svg"
 xmlns:xlink="http://www.w3.org/1999/xlink"
 width="28px" height="27px">
<path fill-rule="evenodd"  fill="rgb(48, 62, 72)"
 d="M27.437,-0.000 L16.736,-0.000 C16.425,-0.000 16.172,0.252 16.172,0.563 L16.172,2.250 L14.483,2.250 C14.172,2.250 13.920,2.502 13.920,2.812 L13.920,9.215 L9.844,11.250 L0.563,11.250 C0.252,11.250 0.000,11.502 0.000,11.813 L0.000,26.437 C0.000,26.748 0.252,27.000 0.563,27.000 L7.000,27.000 C7.311,27.000 7.563,26.748 7.563,26.437 L7.563,24.852 L12.700,25.867 C12.731,25.872 12.762,25.875 12.793,25.875 L21.241,25.875 C22.043,25.872 22.782,25.444 23.181,24.750 L25.184,24.750 C25.495,24.750 25.747,24.498 25.747,24.188 L25.747,22.500 L27.437,22.500 C27.748,22.500 28.000,22.248 28.000,21.938 L28.000,0.563 C28.000,0.252 27.748,-0.000 27.437,-0.000 ZM6.437,25.875 L1.126,25.875 L1.126,12.375 L6.437,12.375 L6.437,25.875 ZM17.299,1.125 L26.874,1.125 L26.874,13.435 C26.863,13.080 26.768,12.722 26.579,12.393 C26.381,12.047 26.094,11.760 25.747,11.562 L25.747,2.812 C25.747,2.502 25.495,2.250 25.184,2.250 L17.299,2.250 L17.299,1.125 ZM15.046,3.375 L24.621,3.375 L24.621,11.250 L23.494,11.250 L23.494,6.187 C23.494,5.877 23.242,5.625 22.931,5.625 C22.620,5.625 22.368,5.373 22.368,5.062 C22.368,4.751 22.116,4.500 21.805,4.500 L17.862,4.500 C17.551,4.500 17.299,4.751 17.299,5.062 C17.299,5.373 17.047,5.625 16.736,5.625 C16.425,5.625 16.172,5.877 16.172,6.187 L16.172,11.250 L15.046,11.250 L15.046,3.375 ZM22.368,6.654 L22.368,11.250 L17.299,11.250 L17.299,6.654 C17.779,6.483 18.158,6.105 18.329,5.625 L21.338,5.625 C21.509,6.105 21.887,6.483 22.368,6.654 ZM24.621,23.624 L23.494,23.624 C23.495,23.179 23.362,22.744 23.113,22.373 C24.287,21.962 24.905,20.679 24.493,19.505 C24.430,19.326 24.345,19.156 24.239,18.998 C24.372,18.950 24.500,18.890 24.621,18.817 L24.621,23.624 ZM24.621,14.626 L22.368,14.626 C22.057,14.626 21.805,14.876 21.805,15.187 C21.805,15.498 22.057,15.750 22.368,15.750 L23.494,15.750 C24.116,15.750 24.621,16.254 24.621,16.875 C24.621,17.497 24.116,18.000 23.494,18.000 L21.241,18.000 C20.930,18.000 20.678,18.251 20.678,18.562 C20.678,18.873 20.930,19.125 21.241,19.125 L22.368,19.125 C22.990,19.125 23.494,19.628 23.494,20.250 C23.494,20.872 22.990,21.375 22.368,21.375 L20.115,21.375 C19.804,21.375 19.552,21.627 19.552,21.938 C19.552,22.248 19.804,22.500 20.115,22.500 L21.241,22.500 C21.864,22.500 22.368,23.003 22.368,23.624 C22.368,24.247 21.864,24.750 21.241,24.750 L12.840,24.750 L7.563,23.711 L7.563,12.375 L9.977,12.375 C10.064,12.375 10.150,12.355 10.229,12.316 L13.920,10.472 L13.920,11.813 C13.920,12.123 14.172,12.375 14.483,12.375 L24.621,12.375 C25.243,12.375 25.747,12.879 25.747,13.499 C25.747,14.121 25.243,14.626 24.621,14.626 ZM25.747,21.375 L25.747,15.443 C26.448,15.043 26.850,14.321 26.874,13.570 L26.874,21.375 L25.747,21.375 Z"/>
</svg>