<svg 
 xmlns="http://www.w3.org/2000/svg"
 xmlns:xlink="http://www.w3.org/1999/xlink"
 width="37px" height="37px">
<path fill-rule="evenodd"  fill="rgb(25, 148, 137)"
 d="M34.086,26.621 C32.358,28.723 29.994,30.230 27.379,30.908 L27.379,36.277 C27.379,36.570 27.203,36.833 26.933,36.944 C26.843,36.982 26.749,37.000 26.656,37.000 C26.468,37.000 26.284,36.927 26.145,36.788 L20.672,31.317 L12.844,31.317 C5.762,31.317 0.000,25.556 0.000,18.476 C0.000,16.294 0.557,14.139 1.612,12.243 C1.806,11.894 2.246,11.769 2.595,11.963 C2.944,12.157 3.070,12.596 2.875,12.946 C1.940,14.627 1.445,16.539 1.445,18.476 C1.445,24.759 6.559,29.871 12.844,29.871 L20.972,29.871 C21.163,29.871 21.347,29.947 21.483,30.083 L25.934,34.533 L25.934,30.336 C25.934,29.993 26.173,29.699 26.508,29.629 C31.750,28.529 35.555,23.839 35.555,18.476 C35.555,12.192 30.441,7.080 24.156,7.080 L23.245,7.080 C22.846,7.080 22.523,6.757 22.523,6.357 C22.523,5.958 22.846,5.635 23.245,5.635 L24.156,5.635 C31.238,5.635 37.000,11.395 37.000,18.476 C37.000,21.441 35.965,24.333 34.086,26.621 ZM20.090,7.080 C19.900,7.080 19.713,7.003 19.579,6.868 C19.444,6.734 19.367,6.547 19.367,6.358 C19.367,6.168 19.444,5.982 19.579,5.847 C19.713,5.712 19.900,5.635 20.090,5.635 C20.280,5.635 20.466,5.712 20.601,5.847 C20.735,5.982 20.812,6.168 20.812,6.358 C20.812,6.547 20.735,6.734 20.601,6.868 C20.466,7.003 20.280,7.080 20.090,7.080 ZM16.339,10.954 L12.429,10.954 C11.801,10.954 11.290,10.444 11.290,9.816 L11.290,6.056 C11.290,1.292 14.013,0.139 16.298,0.010 C16.496,-0.000 16.690,0.071 16.835,0.207 C16.979,0.344 17.061,0.534 17.061,0.732 L17.061,2.895 C17.061,3.268 16.776,3.580 16.404,3.614 C16.031,3.648 15.221,3.721 15.024,5.185 L16.339,5.185 C16.966,5.185 17.477,5.695 17.477,6.323 L17.477,9.816 C17.477,10.444 16.966,10.954 16.339,10.954 ZM16.032,6.630 L14.257,6.630 C13.858,6.630 13.534,6.307 13.534,5.908 C13.534,3.465 14.648,2.596 15.615,2.301 L15.615,1.542 C14.214,1.803 12.736,2.732 12.736,6.056 L12.736,9.509 L16.032,9.509 L16.032,6.630 ZM9.607,12.832 L27.393,12.832 C27.792,12.832 28.116,13.157 28.116,13.555 C28.116,13.954 27.792,14.278 27.393,14.278 L9.607,14.278 C9.208,14.278 8.884,13.954 8.884,13.555 C8.884,13.157 9.208,12.832 9.607,12.832 ZM9.607,16.686 L27.393,16.686 C27.792,16.686 28.116,17.010 28.116,17.408 C28.116,17.807 27.792,18.131 27.393,18.131 L9.607,18.131 C9.208,18.131 8.884,17.807 8.884,17.408 C8.884,17.010 9.208,16.686 9.607,16.686 ZM27.393,24.393 C27.792,24.393 28.116,24.716 28.116,25.115 C28.116,25.514 27.792,25.837 27.393,25.837 L17.913,25.837 C17.513,25.837 17.190,25.514 17.190,25.115 C17.190,24.716 17.513,24.393 17.913,24.393 L27.393,24.393 ZM13.847,24.393 C14.246,24.393 14.569,24.716 14.569,25.115 C14.569,25.514 14.246,25.837 13.847,25.837 L13.835,25.837 C13.436,25.837 13.112,25.514 13.112,25.115 C13.112,24.716 13.436,24.393 13.835,24.393 L13.847,24.393 ZM8.884,21.262 C8.884,20.862 9.208,20.539 9.607,20.539 L27.393,20.539 C27.792,20.539 28.116,20.862 28.116,21.262 C28.116,21.660 27.792,21.985 27.393,21.985 L9.607,21.985 C9.208,21.985 8.884,21.660 8.884,21.262 ZM8.951,10.954 L5.041,10.954 C4.413,10.954 3.902,10.444 3.902,9.816 L3.902,6.056 C3.902,1.292 6.625,0.139 8.910,0.010 C9.108,-0.000 9.302,0.071 9.447,0.207 C9.591,0.344 9.673,0.534 9.673,0.732 L9.673,2.895 C9.673,3.268 9.388,3.580 9.016,3.614 C8.643,3.648 7.833,3.721 7.636,5.185 L8.951,5.185 C9.578,5.185 10.089,5.695 10.089,6.323 L10.089,9.816 C10.089,10.444 9.578,10.954 8.951,10.954 ZM8.644,6.630 L6.869,6.630 C6.470,6.630 6.146,6.307 6.146,5.908 C6.146,3.465 7.260,2.596 8.227,2.301 L8.227,1.542 C6.826,1.803 5.348,2.732 5.348,6.056 L5.348,9.509 L8.644,9.509 L8.644,6.630 Z"/>
</svg>