<svg 
 xmlns="http://www.w3.org/2000/svg"
 xmlns:xlink="http://www.w3.org/1999/xlink"
 width="36px" height="36px">
<path fill-rule="evenodd"  fill="rgb(25, 148, 137)"
 d="M36.000,18.000 C36.000,22.808 34.128,27.328 30.728,30.729 C27.328,34.127 22.808,36.000 18.000,36.000 C16.933,36.000 15.864,35.906 14.822,35.720 C14.440,35.652 14.185,35.287 14.253,34.905 C14.321,34.522 14.687,34.267 15.069,34.336 C16.029,34.507 17.016,34.594 18.000,34.594 C27.150,34.594 34.594,27.150 34.594,18.000 C34.594,14.340 33.373,10.765 31.148,7.877 C30.780,8.062 30.373,8.160 29.949,8.160 C29.236,8.160 28.565,7.882 28.060,7.377 C27.556,6.872 27.278,6.202 27.278,5.488 C27.278,4.774 27.556,4.104 28.060,3.598 C28.565,3.094 29.236,2.816 29.949,2.816 C30.663,2.816 31.334,3.094 31.839,3.598 C32.343,4.104 32.621,4.774 32.621,5.488 C32.621,6.009 32.473,6.506 32.196,6.934 C34.652,10.083 36.000,13.993 36.000,18.000 ZM30.844,4.593 C30.605,4.354 30.288,4.222 29.950,4.222 C29.611,4.222 29.294,4.354 29.055,4.593 C28.561,5.087 28.561,5.890 29.055,6.383 C29.294,6.622 29.611,6.754 29.950,6.754 C30.288,6.754 30.606,6.622 30.844,6.383 C31.084,6.144 31.215,5.826 31.215,5.488 C31.215,5.150 31.084,4.832 30.844,4.593 ZM25.568,18.440 C25.752,19.011 26.540,21.978 24.060,24.458 C22.625,25.893 21.033,26.234 19.840,26.234 C19.393,26.234 19.004,26.187 18.698,26.130 L18.698,30.733 C18.698,31.121 18.383,31.436 17.995,31.436 C17.607,31.436 17.292,31.121 17.292,30.733 L17.292,26.132 C16.988,26.187 16.602,26.235 16.160,26.235 C14.967,26.235 13.375,25.893 11.940,24.458 C9.461,21.978 10.248,19.011 10.432,18.440 C10.494,18.229 10.653,18.056 10.865,17.978 C10.908,17.963 11.254,17.840 11.793,17.761 C9.493,15.314 10.252,12.455 10.432,11.897 C10.494,11.684 10.653,11.511 10.865,11.433 C10.964,11.397 12.690,10.789 14.654,11.476 C14.543,11.021 14.478,10.521 14.478,9.972 C14.478,6.173 17.576,4.691 17.708,4.629 C17.912,4.535 18.147,4.545 18.341,4.651 C18.874,4.924 21.529,6.465 21.529,9.972 C21.529,10.519 21.465,11.019 21.354,11.473 C23.315,10.791 25.036,11.397 25.135,11.433 C25.347,11.511 25.506,11.684 25.568,11.897 C25.748,12.455 26.507,15.314 24.207,17.761 C24.746,17.840 25.092,17.963 25.135,17.978 C25.347,18.056 25.506,18.229 25.568,18.440 ZM11.681,19.209 C11.504,20.016 11.336,21.865 12.934,23.463 C14.557,25.086 16.437,24.887 17.189,24.721 C17.232,24.527 17.276,24.259 17.292,23.940 L17.292,23.471 C17.248,22.594 16.945,21.479 15.931,20.466 C15.399,19.934 14.838,19.599 14.297,19.395 C14.231,19.372 14.164,19.349 14.096,19.323 C13.075,18.992 12.153,19.106 11.681,19.209 ZM11.681,12.666 C11.504,13.472 11.336,15.321 12.934,16.919 C13.451,17.436 13.994,17.767 14.518,17.975 C14.619,18.007 14.720,18.043 14.822,18.081 C15.824,18.394 16.723,18.280 17.189,18.177 C17.232,17.983 17.276,17.715 17.292,17.396 L17.292,16.927 C17.251,16.116 16.988,15.102 16.146,14.152 C16.085,14.088 16.023,14.022 15.961,13.952 C15.951,13.942 15.942,13.932 15.931,13.923 C14.317,12.308 12.432,12.502 11.681,12.666 ZM18.000,6.077 C17.351,6.490 15.884,7.679 15.884,9.972 C15.884,11.395 16.457,12.396 17.044,13.049 C17.078,13.085 17.112,13.121 17.145,13.158 C17.467,13.493 17.784,13.727 18.005,13.867 C18.200,13.744 18.469,13.549 18.750,13.276 C18.850,13.160 18.957,13.045 19.071,12.931 C19.619,12.279 20.123,11.315 20.123,9.972 C20.123,7.710 18.695,6.521 18.000,6.077 ZM24.319,12.664 C23.572,12.499 21.714,12.305 20.100,13.891 C19.997,14.011 19.893,14.121 19.789,14.224 C18.915,15.250 18.702,16.343 18.702,17.168 C18.702,17.174 18.702,17.180 18.702,17.186 C18.704,17.598 18.760,17.942 18.812,18.177 C19.275,18.280 20.174,18.394 21.176,18.082 C21.280,18.043 21.382,18.006 21.484,17.974 C22.008,17.766 22.550,17.435 23.066,16.919 C24.665,15.320 24.496,13.470 24.319,12.664 ZM24.319,19.208 C23.854,19.105 22.957,18.991 21.957,19.304 C21.855,19.342 21.754,19.377 21.654,19.410 C21.130,19.617 20.586,19.948 20.069,20.466 C18.452,22.083 18.649,23.973 18.813,24.721 C19.563,24.887 21.443,25.086 23.066,23.463 C24.665,21.865 24.496,20.014 24.319,19.208 ZM24.474,2.659 C24.386,2.659 24.297,2.642 24.211,2.608 L24.203,2.604 C23.842,2.460 23.667,2.051 23.811,1.691 C23.955,1.330 24.365,1.154 24.725,1.298 L24.738,1.303 C25.098,1.449 25.272,1.859 25.126,2.220 C25.016,2.493 24.752,2.659 24.474,2.659 ZM21.460,1.768 C20.330,1.528 19.166,1.407 18.000,1.407 C8.850,1.407 1.406,8.850 1.406,18.000 C1.406,21.660 2.627,25.234 4.853,28.123 C5.220,27.938 5.628,27.840 6.050,27.840 C6.764,27.840 7.435,28.118 7.940,28.623 C8.444,29.127 8.722,29.798 8.722,30.512 C8.722,31.226 8.445,31.897 7.940,32.401 C7.435,32.906 6.764,33.184 6.050,33.184 C5.337,33.184 4.666,32.906 4.161,32.401 C3.657,31.897 3.379,31.226 3.379,30.512 C3.379,29.991 3.527,29.493 3.804,29.065 C1.348,25.917 0.000,22.006 0.000,18.000 C0.000,13.192 1.872,8.672 5.272,5.272 C8.672,1.873 13.192,-0.000 18.000,-0.000 C19.264,-0.000 20.526,0.132 21.752,0.392 C22.132,0.473 22.374,0.845 22.294,1.225 C22.213,1.605 21.840,1.848 21.460,1.768 ZM5.156,31.407 C5.649,31.901 6.452,31.901 6.945,31.407 C7.185,31.168 7.316,30.850 7.316,30.512 C7.316,30.174 7.185,29.856 6.945,29.617 C6.699,29.370 6.375,29.246 6.050,29.246 C5.726,29.246 5.402,29.370 5.156,29.617 C4.917,29.856 4.785,30.174 4.785,30.512 C4.785,30.850 4.917,31.168 5.156,31.407 ZM11.820,33.405 L11.556,34.057 L11.822,33.406 C12.185,33.544 12.364,33.950 12.225,34.313 C12.118,34.593 11.850,34.764 11.567,34.764 C11.483,34.764 11.397,34.749 11.315,34.718 L11.293,34.709 C10.933,34.563 10.759,34.153 10.905,33.793 C11.050,33.433 11.460,33.259 11.820,33.405 Z"/>
</svg>