<svg 
 xmlns="http://www.w3.org/2000/svg"
 xmlns:xlink="http://www.w3.org/1999/xlink"
 width="42px" height="37px">
<path fill-rule="evenodd"  fill="rgb(25, 149, 137)"
 d="M41.760,27.386 C41.608,27.540 41.397,27.629 41.181,27.629 C40.966,27.629 40.755,27.540 40.602,27.386 C40.450,27.234 40.363,27.020 40.363,26.803 C40.363,26.585 40.450,26.374 40.602,26.220 C40.755,26.065 40.966,25.978 41.181,25.978 C41.397,25.978 41.608,26.065 41.760,26.220 C41.912,26.374 42.000,26.585 42.000,26.803 C42.000,27.020 41.912,27.233 41.760,27.386 ZM38.980,25.409 C38.770,25.409 38.560,25.328 38.401,25.168 L36.205,22.954 C36.051,22.799 35.964,22.588 35.965,22.368 L35.970,18.690 C35.973,16.497 35.335,14.377 34.124,12.557 L30.520,7.140 C30.275,6.771 29.901,6.523 29.469,6.442 C29.036,6.360 28.599,6.455 28.239,6.710 C27.540,7.203 27.339,8.166 27.781,8.901 L29.189,11.242 C29.501,11.761 29.384,12.409 28.911,12.783 C28.438,13.157 27.785,13.117 27.360,12.689 L22.763,8.055 C22.444,7.733 22.444,7.210 22.763,6.888 C23.083,6.566 23.602,6.566 23.921,6.888 L26.061,9.045 C25.642,7.705 26.113,6.195 27.299,5.358 C28.023,4.847 28.901,4.655 29.769,4.819 C30.638,4.982 31.388,5.480 31.880,6.220 L35.484,11.638 C36.877,13.732 37.611,16.171 37.608,18.692 L37.603,22.029 L39.559,24.001 C39.878,24.323 39.878,24.845 39.559,25.168 C39.399,25.328 39.189,25.409 38.980,25.409 ZM21.418,6.357 C21.202,6.357 20.992,6.269 20.839,6.116 C20.686,5.962 20.599,5.750 20.599,5.532 C20.599,5.315 20.686,5.101 20.839,4.949 C20.992,4.794 21.202,4.706 21.418,4.706 C21.634,4.706 21.845,4.794 21.996,4.949 C22.149,5.101 22.237,5.315 22.237,5.532 C22.237,5.749 22.149,5.962 21.996,6.116 C21.844,6.269 21.634,6.357 21.418,6.357 ZM29.237,22.539 C29.078,22.700 28.868,22.781 28.659,22.781 C28.449,22.781 28.239,22.700 28.080,22.539 C26.551,20.998 26.551,18.490 28.080,16.948 L28.437,16.588 C28.757,16.266 29.275,16.266 29.595,16.588 C29.914,16.911 29.914,17.433 29.595,17.755 L29.237,18.116 C28.347,19.014 28.347,20.473 29.237,21.371 C29.557,21.693 29.557,22.216 29.237,22.539 ZM18.901,4.162 L17.181,2.428 C16.568,1.811 15.571,1.811 14.958,2.428 C14.384,3.007 14.348,3.926 14.849,4.548 L19.544,9.292 C19.864,9.614 19.864,10.137 19.544,10.459 C19.384,10.620 19.174,10.701 18.965,10.701 C18.755,10.701 18.546,10.621 18.386,10.459 L12.209,4.222 C11.596,3.603 10.599,3.603 9.986,4.222 C9.373,4.839 9.373,5.844 9.986,6.463 L13.511,10.016 C13.831,10.337 13.831,10.860 13.511,11.183 C13.352,11.344 13.142,11.425 12.933,11.425 C12.723,11.425 12.513,11.344 12.354,11.183 L10.310,9.123 C9.693,8.617 8.782,8.654 8.208,9.233 C7.595,9.850 7.595,10.856 8.208,11.473 L10.318,13.588 L10.837,13.065 C11.316,12.582 11.953,12.317 12.631,12.317 C13.309,12.317 13.946,12.582 14.425,13.065 C14.645,13.287 14.819,13.542 14.943,13.819 L16.114,12.638 C16.593,12.156 17.230,11.889 17.908,11.889 C18.586,11.889 19.223,12.156 19.703,12.638 C19.944,12.880 20.130,13.164 20.256,13.472 C20.641,13.243 21.080,13.121 21.539,13.121 C22.217,13.121 22.854,13.387 23.333,13.870 C23.812,14.354 24.076,14.996 24.076,15.679 C24.076,16.141 23.955,16.584 23.729,16.972 C24.034,17.100 24.315,17.288 24.556,17.529 C25.545,18.528 25.545,20.149 24.556,21.147 L21.295,24.434 C21.308,24.434 21.321,24.434 21.335,24.434 C22.151,24.434 22.952,24.823 23.450,25.539 C23.850,26.116 24.000,26.814 23.872,27.505 C23.743,28.197 23.354,28.793 22.774,29.184 L21.358,30.142 C22.579,30.602 23.884,30.843 25.186,30.843 C25.192,30.843 25.197,30.843 25.202,30.843 L27.561,30.840 C27.561,30.840 27.562,30.840 27.562,30.840 C27.779,30.840 27.988,30.927 28.141,31.082 L32.538,35.515 C32.858,35.838 32.858,36.359 32.538,36.682 C32.379,36.843 32.169,36.924 31.960,36.924 C31.750,36.924 31.540,36.843 31.381,36.682 L27.223,32.492 L25.204,32.494 C25.198,32.494 25.192,32.494 25.186,32.494 C23.309,32.494 21.428,32.060 19.738,31.237 L18.910,31.797 C17.382,32.830 15.603,33.376 13.763,33.376 C13.759,33.376 13.755,33.376 13.751,33.376 L11.466,33.372 L8.107,36.758 C7.947,36.919 7.737,37.000 7.528,37.000 C7.318,37.000 7.109,36.919 6.949,36.758 C6.629,36.436 6.629,35.913 6.949,35.591 L10.549,31.962 C10.702,31.808 10.910,31.720 11.127,31.720 C11.128,31.720 11.128,31.720 11.129,31.720 L13.753,31.724 C13.756,31.724 13.760,31.724 13.764,31.724 C15.277,31.724 16.741,31.275 17.998,30.426 L21.862,27.814 C22.073,27.671 22.215,27.454 22.261,27.202 C22.308,26.950 22.254,26.696 22.108,26.487 C21.825,26.080 21.274,25.964 20.853,26.220 L19.183,27.240 C18.712,27.528 18.124,27.420 17.784,26.984 C17.444,26.547 17.480,25.945 17.870,25.552 L23.397,19.980 C23.748,19.626 23.748,19.051 23.397,18.698 C23.071,18.368 22.554,18.346 22.201,18.629 L18.263,22.590 C17.943,22.913 17.425,22.913 17.105,22.590 C16.785,22.268 16.785,21.745 17.105,21.422 L22.175,16.320 C22.526,15.968 22.526,15.392 22.175,15.038 C22.005,14.866 21.779,14.772 21.539,14.772 C21.298,14.772 21.072,14.866 20.902,15.038 L15.841,20.149 C15.681,20.309 15.471,20.390 15.262,20.390 C15.052,20.390 14.843,20.309 14.683,20.149 C14.363,19.826 14.363,19.303 14.683,18.981 L18.612,15.012 C18.893,14.656 18.871,14.134 18.545,13.805 C18.375,13.634 18.149,13.540 17.908,13.540 C17.668,13.540 17.442,13.634 17.272,13.805 L13.414,17.702 C13.255,17.865 13.045,17.944 12.835,17.944 C12.626,17.944 12.416,17.865 12.256,17.702 C12.256,17.701 12.255,17.701 12.254,17.700 C12.254,17.699 12.253,17.698 12.252,17.698 C11.932,17.375 11.932,16.852 12.252,16.531 L13.334,15.441 C13.462,15.279 13.531,15.083 13.531,14.875 C13.531,14.633 13.437,14.405 13.267,14.234 C13.098,14.062 12.872,13.967 12.631,13.967 C12.391,13.967 12.165,14.062 11.995,14.234 L11.605,14.626 L7.542,18.722 C6.103,20.172 5.312,22.101 5.315,24.152 L5.317,25.861 C5.318,26.081 5.231,26.292 5.077,26.446 L1.478,30.076 C1.318,30.237 1.108,30.317 0.899,30.317 C0.689,30.317 0.480,30.237 0.320,30.076 C-0.000,29.753 -0.000,29.230 0.320,28.907 L3.679,25.522 L3.677,24.155 C3.674,21.951 4.425,19.864 5.807,18.192 L5.441,17.824 C4.190,16.562 4.190,14.510 5.441,13.248 C5.847,12.841 6.335,12.565 6.851,12.420 C5.803,11.150 5.869,9.256 7.050,8.065 C7.464,7.649 7.963,7.370 8.491,7.230 C7.590,5.967 7.702,4.189 8.828,3.054 C9.435,2.443 10.241,2.107 11.098,2.107 C11.780,2.107 12.428,2.320 12.970,2.714 C13.111,2.182 13.387,1.678 13.800,1.262 C15.052,-0.001 17.088,-0.001 18.339,1.262 L20.059,2.995 C20.379,3.318 20.379,3.840 20.059,4.162 C19.740,4.484 19.221,4.484 18.901,4.162 ZM6.599,14.416 C5.986,15.034 5.986,16.039 6.599,16.657 L6.937,16.998 L8.624,15.297 C8.624,15.296 8.624,15.296 8.624,15.296 L9.154,14.763 L8.702,14.306 C8.085,13.800 7.173,13.837 6.599,14.416 Z"/>
</svg>