<svg 
 xmlns="http://www.w3.org/2000/svg"
 xmlns:xlink="http://www.w3.org/1999/xlink"
 width="19px" height="20px">
<path fill-rule="evenodd"  fill="rgb(121, 188, 15)"
 d="M9.752,19.956 C9.671,19.982 9.585,19.995 9.500,19.995 C9.414,19.995 9.329,19.982 9.247,19.956 C-0.000,17.063 0.145,10.201 0.251,5.195 C0.262,4.657 0.273,4.146 0.273,3.655 C0.273,3.270 0.619,2.960 1.046,2.960 C4.349,2.960 6.865,2.102 8.961,0.257 C9.261,-0.005 9.738,-0.005 10.038,0.257 C12.135,2.102 14.651,2.960 17.955,2.960 C18.381,2.960 18.727,3.270 18.727,3.655 C18.727,4.146 18.738,4.656 18.749,5.195 C18.855,10.200 19.000,17.063 9.752,19.956 ZM17.204,5.221 C17.198,4.917 17.192,4.624 17.188,4.341 C14.093,4.222 11.618,3.376 9.500,1.708 C7.382,3.376 4.907,4.222 1.813,4.341 C1.808,4.624 1.802,4.917 1.796,5.221 C1.689,10.255 1.569,15.954 9.500,18.557 C17.431,15.954 17.311,10.255 17.204,5.221 ZM8.978,12.453 C8.827,12.590 8.629,12.654 8.431,12.654 C8.234,12.654 8.036,12.590 7.885,12.453 L5.748,10.521 C5.446,10.248 5.446,9.808 5.748,9.535 C6.049,9.262 6.538,9.262 6.840,9.535 L8.431,10.972 L12.160,7.601 C12.462,7.332 12.951,7.332 13.253,7.601 C13.554,7.877 13.554,8.318 13.253,8.591 L8.978,12.453 Z"/>
</svg>