<svg xmlns="http://www.w3.org/2000/svg" width="14" height="12" viewBox="0 0 14 12">
<defs>
    <style>
      .cls-1 {
        fill: #7196b1;
        fill-rule: evenodd;
      }
    </style>
  </defs>
  <path id="Forma_1" data-name="Forma 1" class="cls-1" d="M1737.96,8511.49a3.987,3.987,0,0,0-1.91-.49,3.986,3.986,0,0,1-6.1,0,3.987,3.987,0,0,0-1.91.49,3.939,3.939,0,0,0-2.04,3.44,3.7,3.7,0,0,0,.2,1.21c0.67,3.04,6.8,6.86,6.8,6.86s6.12-3.82,6.8-6.86a3.7,3.7,0,0,0,.2-1.21A3.939,3.939,0,0,0,1737.96,8511.49Z" transform="translate(-1726 -8511)"/>
</svg>
